<?xml version="1.0" encoding="utf-8"?>
<!-- Generator: Adobe Illustrator 16.0.0, SVG Export Plug-In . SVG Version: 6.00 Build 0)  -->
<!DOCTYPE svg PUBLIC "-//W3C//DTD SVG 1.1//EN" "http://www.w3.org/Graphics/SVG/1.1/DTD/svg11.dtd">
<svg version="1.1" xmlns="http://www.w3.org/2000/svg" xmlns:xlink="http://www.w3.org/1999/xlink" x="0px" y="0px" width="90px"
	 height="100px" viewBox="0 0 90 100" enable-background="new 0 0 90 100" xml:space="preserve">
<g id="Layer_1">
	<rect x="25.25" y="33.542" fill="none" stroke="#000000" stroke-width="2" stroke-miterlimit="10" width="39.5" height="32.916"/>
	<path fill="none" stroke="#000000" stroke-miterlimit="10" d="M85.27,33.542H64.75v32.916h20.52C87.346,61.38,88.5,55.826,88.5,50
		S87.346,38.62,85.27,33.542z"/>
	<path fill="none" stroke="#000000" stroke-miterlimit="10" d="M25.25,33.542H4.731C2.654,38.62,1.5,44.174,1.5,50
		s1.154,11.38,3.231,16.458H25.25V33.542z"/>
	<g>
		<line fill="none" stroke="#000000" stroke-width="2" stroke-miterlimit="10" x1="45" y1="74.584" x2="45" y2="86"/>
		<g>
			<polygon fill="none" stroke="#000000" stroke-miterlimit="10" points="40.91,77.898 41.643,78.58 44.999,74.969 48.355,78.58 
				49.089,77.898 44.999,73.5 			"/>
		</g>
	</g>
	<g>
		<line fill="none" stroke="#000000" stroke-width="2" stroke-miterlimit="10" x1="45" y1="13" x2="45" y2="24.416"/>
		<g>
			<polygon fill="none" stroke="#000000" stroke-miterlimit="10" points="40.91,21.102 41.643,20.42 44.999,24.032 48.355,20.42 
				49.089,21.102 44.999,25.5 			"/>
		</g>
	</g>
	<circle fill="none" stroke="#000000" stroke-width="2" stroke-miterlimit="10" cx="45" cy="50" r="43.5"/>
</g>
<g id="Layer_2">
	
		<linearGradient id="SVGID_1_" gradientUnits="userSpaceOnUse" x1="40.6655" y1="51" x2="56.667" y2="51" gradientTransform="matrix(-4.371139e-008 1 -1 -4.371139e-008 96.166 2.1675)">
		<stop  offset="0" style="stop-color:#FFFFFF;stop-opacity:0"/>
		<stop  offset="0.0688" style="stop-color:#FFFFFF;stop-opacity:0.1375"/>
		<stop  offset="0.5" style="stop-color:#FFFFFF"/>
		<stop  offset="0.9312" style="stop-color:#FFFFFF;stop-opacity:0.1375"/>
		<stop  offset="1" style="stop-color:#FFFFFF;stop-opacity:0"/>
	</linearGradient>
	<rect x="6.166" y="42.833" fill="url(#SVGID_1_)" width="78.001" height="16.001"/>
</g>
<g id="Layer_3">
	<text transform="matrix(1 0 0 1 6.1665 54.167)" font-family="'MyriadPro-Regular'" font-size="12">Slideshow View</text>
</g>
</svg>
